<svg width="76" height="76" viewBox="0 0 76 76" fill="none" xmlns="http://www.w3.org/2000/svg">
<circle cx="38" cy="38" r="38" fill="white"/>
<path d="M55.4151 29.8113V20.3585C55.4151 14.9245 51.6226 13 48.0566 13H26.8868C23.3208 13 19.5283 14.9245 19.5283 20.3585V29.8113C16.9245 30.4906 15 32.8113 15 35.6415V50.8113C15 55.283 18 57.0377 20.9434 57.2075V61.0566C20.9434 62.1887 21.8491 63.0943 22.9811 63.0943H25.0755C26.2075 63.0943 27.1132 62.1887 27.1132 61.0566V57.2075H47.8868V61.0566C47.8868 62.1887 48.7924 63.0943 49.9245 63.0943H52.0189C53.1509 63.0943 54.0566 62.1887 54.0566 61.0566V57.2075C58.4151 56.9811 60 53.8113 60 50.8113V35.5849C59.8868 32.8113 57.9623 30.434 55.4151 29.8113ZM21.566 20.3585C21.566 15.717 24.9057 14.9811 26.8868 14.9811H48.0566C50.0377 14.9811 53.3774 15.6604 53.3774 20.3019V29.5849C50.3208 29.8679 47.8868 32.4151 47.8868 35.5849V37H27.0566V35.5849C27.0566 32.4151 24.6226 29.8679 21.566 29.5849V20.3585ZM47.8302 39.0377V46.0566H27.0566V39.0377H47.8302ZM25.0755 61.0566H22.9811V57.2075H25.0755V61.0566ZM51.9623 61.0566H49.8679V57.2075H51.9623V61.0566ZM57.9623 50.8113H57.9057C57.9057 52.7925 57.1698 55.2264 53.4906 55.2264H51.9623H49.8679H25.0755H22.9811H21.4528C19.4717 55.2264 17.0377 54.4906 17.0377 50.8113V35.5849C17.0377 33.3774 18.8491 31.566 21.0566 31.566C23.2642 31.566 25.0755 33.3774 25.0755 35.5849V47.0755C25.0755 47.6415 25.5283 48.0943 26.0943 48.0943H48.9057C49.4717 48.0943 49.9245 47.6415 49.9245 47.0755V35.5849C49.9245 33.3774 51.7358 31.566 53.9434 31.566C56.1509 31.566 57.9623 33.3774 57.9623 35.5849V50.8113V50.8113Z" fill="#29A867"/>
<path d="M55.4151 29.8113V20.3585C55.4151 14.9245 51.6226 13 48.0566 13H26.8868C23.3208 13 19.5283 14.9245 19.5283 20.3585V29.8113C16.9245 30.4906 15 32.8113 15 35.6415V50.8113C15 55.283 18 57.0377 20.9434 57.2075V61.0566C20.9434 62.1887 21.8491 63.0943 22.9811 63.0943H25.0755C26.2075 63.0943 27.1132 62.1887 27.1132 61.0566V57.2075H47.8868V61.0566C47.8868 62.1887 48.7924 63.0943 49.9245 63.0943H52.0189C53.1509 63.0943 54.0566 62.1887 54.0566 61.0566V57.2075C58.4151 56.9811 60 53.8113 60 50.8113V35.5849C59.8868 32.8113 57.9623 30.434 55.4151 29.8113ZM21.566 20.3585C21.566 15.717 24.9057 14.9811 26.8868 14.9811H48.0566C50.0377 14.9811 53.3774 15.6604 53.3774 20.3019V29.5849C50.3208 29.8679 47.8868 32.4151 47.8868 35.5849V37H27.0566V35.5849C27.0566 32.4151 24.6226 29.8679 21.566 29.5849V20.3585ZM47.8302 39.0377V46.0566H27.0566V39.0377H47.8302ZM25.0755 61.0566H22.9811V57.2075H25.0755V61.0566ZM51.9623 61.0566H49.8679V57.2075H51.9623V61.0566ZM57.9623 50.8113H57.9057C57.9057 52.7925 57.1698 55.2264 53.4906 55.2264H51.9623H49.8679H25.0755H22.9811H21.4528C19.4717 55.2264 17.0377 54.4906 17.0377 50.8113V35.5849C17.0377 33.3774 18.8491 31.566 21.0566 31.566C23.2642 31.566 25.0755 33.3774 25.0755 35.5849V47.0755C25.0755 47.6415 25.5283 48.0943 26.0943 48.0943H48.9057C49.4717 48.0943 49.9245 47.6415 49.9245 47.0755V35.5849C49.9245 33.3774 51.7358 31.566 53.9434 31.566C56.1509 31.566 57.9623 33.3774 57.9623 35.5849V50.8113V50.8113Z" fill="url(#paint0_linear)"/>
<defs>
<linearGradient id="paint0_linear" x1="37.5" y1="13" x2="37.5" y2="63.0943" gradientUnits="userSpaceOnUse">
<stop stop-color="#005B2D"/>
<stop offset="1" stop-color="white" stop-opacity="0"/>
</linearGradient>
</defs>
</svg>
