<svg width="76" height="76" viewBox="0 0 76 76" fill="none" xmlns="http://www.w3.org/2000/svg">
<circle cx="38" cy="38" r="38" fill="white"/>
<path d="M12.1667 48.55V18C12.1667 16.8954 13.0622 16 14.1667 16H60.8001C61.9047 16 62.8001 16.8954 62.8001 18V48.55" stroke="#29A867" stroke-width="1.7"/>
<path d="M12.1667 48.55V18C12.1667 16.8954 13.0622 16 14.1667 16H60.8001C61.9047 16 62.8001 16.8954 62.8001 18V48.55" stroke="url(#paint0_linear)" stroke-width="1.7"/>
<path d="M15.7834 29.95V22.1333C15.7834 21.0288 16.6789 20.1333 17.7834 20.1333H57.1835C58.288 20.1333 59.1835 21.0288 59.1835 22.1333V29.95" stroke="#29A867" stroke-width="1.7"/>
<path d="M15.7834 29.95V22.1333C15.7834 21.0288 16.6789 20.1333 17.7834 20.1333H57.1835C58.288 20.1333 59.1835 21.0288 59.1835 22.1333V29.95" stroke="url(#paint1_linear)" stroke-width="1.7"/>
<path d="M59.1714 35.5816L59.1901 43.3982C59.1927 44.5028 58.2994 45.4003 57.1948 45.403L17.7949 45.497C16.6904 45.4996 15.7928 44.6064 15.7902 43.5018L15.7715 35.6851" stroke="#29A867" stroke-width="1.7"/>
<path d="M59.1714 35.5816L59.1901 43.3982C59.1927 44.5028 58.2994 45.4003 57.1948 45.403L17.7949 45.497C16.6904 45.4996 15.7928 44.6064 15.7902 43.5018L15.7715 35.6851" stroke="url(#paint2_linear)" stroke-width="1.7"/>
<path d="M62.0474 49.0667H13.013C12.2306 49.0667 11.52 49.5229 11.1944 50.2344L8.29611 56.5677C7.68991 57.8924 8.65795 59.4 10.1147 59.4H65.5898C67.1173 59.4 68.0809 57.7568 67.3353 56.4237L63.7929 50.0903C63.4394 49.4582 62.7717 49.0667 62.0474 49.0667Z" stroke="#29A867" stroke-width="1.5"/>
<path d="M62.0474 49.0667H13.013C12.2306 49.0667 11.52 49.5229 11.1944 50.2344L8.29611 56.5677C7.68991 57.8924 8.65795 59.4 10.1147 59.4H65.5898C67.1173 59.4 68.0809 57.7568 67.3353 56.4237L63.7929 50.0903C63.4394 49.4582 62.7717 49.0667 62.0474 49.0667Z" stroke="url(#paint3_linear)" stroke-width="1.5"/>
<path d="M29.7334 59.4L31.8001 53.7167H42.6501L45.7501 59.4" stroke="#29A867" stroke-width="1.5"/>
<path d="M29.7334 59.4L31.8001 53.7167H42.6501L45.7501 59.4" stroke="url(#paint4_linear)" stroke-width="1.5"/>
<defs>
<linearGradient id="paint0_linear" x1="37.4834" y1="16" x2="37.4834" y2="48.55" gradientUnits="userSpaceOnUse">
<stop stop-color="#1C5136"/>
<stop offset="1" stop-color="white" stop-opacity="0"/>
</linearGradient>
<linearGradient id="paint1_linear" x1="37.4834" y1="20.1333" x2="37.4834" y2="29.95" gradientUnits="userSpaceOnUse">
<stop stop-color="#1C5136"/>
<stop offset="1" stop-color="white" stop-opacity="0"/>
</linearGradient>
<linearGradient id="paint2_linear" x1="37.4949" y1="45.45" x2="37.4715" y2="35.6334" gradientUnits="userSpaceOnUse">
<stop stop-color="#1C5136"/>
<stop offset="1" stop-color="white" stop-opacity="0"/>
</linearGradient>
<linearGradient id="paint3_linear" x1="38" y1="49.0667" x2="38" y2="59.4" gradientUnits="userSpaceOnUse">
<stop stop-color="#1C5136"/>
<stop offset="1" stop-color="white" stop-opacity="0"/>
</linearGradient>
<linearGradient id="paint4_linear" x1="37.7417" y1="53.7167" x2="37.7417" y2="59.4" gradientUnits="userSpaceOnUse">
<stop stop-color="#1C5136"/>
<stop offset="1" stop-color="white" stop-opacity="0"/>
</linearGradient>
</defs>
</svg>
