<svg width="76" height="76" viewBox="0 0 76 76" fill="none" xmlns="http://www.w3.org/2000/svg">
<circle cx="38" cy="38" r="38" fill="white"/>
<path d="M22.6508 54.8288H16.82C16.2902 54.8288 15.8608 55.2582 15.8608 55.7879C15.8608 56.3176 16.2902 56.747 16.82 56.747H22.6507C23.1804 56.747 23.6098 56.3176 23.6098 55.7879C23.6098 55.2582 23.1804 54.8288 22.6508 54.8288Z" fill="#29A867"/>
<path d="M22.6508 54.8288H16.82C16.2902 54.8288 15.8608 55.2582 15.8608 55.7879C15.8608 56.3176 16.2902 56.747 16.82 56.747H22.6507C23.1804 56.747 23.6098 56.3176 23.6098 55.7879C23.6098 55.2582 23.1804 54.8288 22.6508 54.8288Z" fill="url(#paint0_linear)"/>
<path d="M27.8549 55.4214C27.698 55.0382 27.2958 54.7957 26.8836 54.833C26.487 54.869 26.1467 55.1556 26.0431 55.5398C25.9403 55.9211 26.0911 56.3375 26.4112 56.5676C26.7354 56.8006 27.1869 56.8038 27.5149 56.5767C27.8815 56.323 28.0265 55.8332 27.8549 55.4214V55.4214Z" fill="#29A867"/>
<path d="M27.8549 55.4214C27.698 55.0382 27.2958 54.7957 26.8836 54.833C26.487 54.869 26.1467 55.1556 26.0431 55.5398C25.9403 55.9211 26.0911 56.3375 26.4112 56.5676C26.7354 56.8006 27.1869 56.8038 27.5149 56.5767C27.8815 56.323 28.0265 55.8332 27.8549 55.4214V55.4214Z" fill="url(#paint1_linear)"/>
<path d="M26.9867 50.0243H15.1508C14.621 50.0243 14.1917 50.4537 14.1917 50.9834C14.1917 51.5131 14.621 51.9425 15.1508 51.9425H26.9867C27.5164 51.9425 27.9458 51.5131 27.9458 50.9834C27.9458 50.4537 27.5164 50.0243 26.9867 50.0243Z" fill="#29A867"/>
<path d="M26.9867 50.0243H15.1508C14.621 50.0243 14.1917 50.4537 14.1917 50.9834C14.1917 51.5131 14.621 51.9425 15.1508 51.9425H26.9867C27.5164 51.9425 27.9458 51.5131 27.9458 50.9834C27.9458 50.4537 27.5164 50.0243 26.9867 50.0243Z" fill="url(#paint2_linear)"/>
<path d="M23.2992 46.1788C23.2992 45.6491 22.8698 45.2197 22.3401 45.2197H13.9591C13.4294 45.2197 13 45.6491 13 46.1788C13 46.7086 13.4294 47.138 13.9591 47.138H22.3401C22.8698 47.138 23.2992 46.7086 23.2992 46.1788Z" fill="#29A867"/>
<path d="M23.2992 46.1788C23.2992 45.6491 22.8698 45.2197 22.3401 45.2197H13.9591C13.4294 45.2197 13 45.6491 13 46.1788C13 46.7086 13.4294 47.138 13.9591 47.138H22.3401C22.8698 47.138 23.2992 46.7086 23.2992 46.1788Z" fill="url(#paint3_linear)"/>
<path d="M60.9597 49.9056C60.7976 44.4682 56.3239 40.0948 50.8479 40.0948H45.9814L43.2131 23.47C43.068 22.4704 42.5365 21.5957 41.7156 21.0059C40.8916 20.4139 39.8882 20.1901 38.8908 20.3756C36.8573 20.7537 36.2977 20.8347 36.1451 20.8493C35.8626 20.8763 35.6066 21.0271 35.4459 21.2611C35.2852 21.495 35.2364 21.7881 35.3127 22.0616L35.551 22.9165C33.8089 22.7079 32.2137 21.7596 31.2009 20.2754L30.6149 19.418C30.4607 19.1924 30.2176 19.0433 29.9466 19.0081C29.6758 18.9727 29.4026 19.0549 29.1958 19.2335L24.6095 23.1971C24.0956 23.5829 23.5989 24.0859 23.1331 24.6922C23.1328 24.6925 23.1326 24.6929 23.1323 24.6932C21.8313 26.3827 20.7056 28.9141 20.0585 31.5752C19.3484 31.6412 18.6621 31.9704 18.1613 32.5506L17.0508 33.8375C16.5515 34.416 16.308 35.1543 16.3651 35.9165C16.4223 36.6786 16.7731 37.3723 17.3532 37.87L36.2449 54.0781C36.5652 54.3475 36.8991 54.598 37.2446 54.8288H31.3226C30.7929 54.8288 30.3635 55.2582 30.3635 55.7879C30.3635 56.3176 30.7929 56.747 31.3226 56.747H59.2514C60.8258 56.747 62.1066 55.4661 62.1066 53.8918V52.192C62.1066 51.2577 61.6556 50.4268 60.9597 49.9056V49.9056ZM42.361 30.0311H39.5252L38.8194 27.4987H41.9393L42.361 30.0311ZM42.6804 31.9494L43.123 34.6076H40.8007L40.0598 31.9494H42.6804ZM43.4425 36.5259L44.1212 40.6017C43.8256 40.6889 43.508 40.685 43.198 40.5847C42.6819 40.418 42.305 40.0218 42.1616 39.4904L41.3353 36.5259H43.4425ZM39.2416 22.2615C39.7201 22.1724 40.2012 22.2798 40.5964 22.5638C40.9918 22.8478 41.2473 23.2697 41.3157 23.7517C41.3167 23.7594 41.3179 23.767 41.3192 23.7746L41.6199 25.5805H38.2848L37.4501 22.5856C37.8672 22.5133 38.4427 22.41 39.2416 22.2615V22.2615ZM25.8377 24.6709L29.6373 21.3872C31.1162 23.5336 33.5275 24.8177 36.0972 24.8763L36.2935 25.5804H36.2366C35.7069 25.5804 35.2775 26.0098 35.2775 26.5395C35.2775 27.0692 35.7069 27.4986 36.2366 27.4986H36.8281L37.5339 30.031H36.9106C36.3808 30.031 35.9515 30.4604 35.9515 30.9902C35.9515 31.5199 36.3808 31.9493 36.9106 31.9493H38.0686L38.8095 34.6076H37.6779C37.1481 34.6076 36.7187 35.0369 36.7187 35.5667C36.7187 36.0964 37.1481 36.5258 37.6779 36.5258H39.3441L40.3118 39.9975C40.6207 41.143 41.4791 42.0449 42.608 42.4098C42.7667 42.4611 42.9272 42.5007 43.0885 42.5287L42.154 43.8776C41.8524 44.313 41.9609 44.9105 42.3962 45.2122C42.5628 45.3276 42.7532 45.383 42.9416 45.383C43.2455 45.383 43.5446 45.2388 43.7308 44.97L45.7794 42.013H50.8478C55.073 42.013 58.5618 45.2258 58.9997 49.3366H43.5639C42.6392 49.3366 41.7393 49.0107 41.029 48.4188L27.3934 36.7202C29.0116 35.4278 29.9764 33.4228 29.9764 31.2297C29.9764 29.5476 29.3693 27.9227 28.267 26.6543C27.556 25.8362 26.6701 25.2004 25.686 24.7889C25.7178 24.7639 25.7497 24.7395 25.7815 24.7159C25.8008 24.7016 25.8196 24.6866 25.8377 24.6709V24.6709ZM24.3075 26.3409C26.4809 26.9252 28.0581 28.9349 28.0581 31.2297C28.0581 32.9612 27.244 34.5259 25.9003 35.4393L22.182 32.2492C22.0969 32.1761 22.0084 32.109 21.9175 32.0476C22.442 29.8764 23.3043 27.8186 24.3075 26.3409V26.3409ZM60.1884 53.8918C60.1884 54.4084 59.768 54.8288 59.2514 54.8288H43.5639C41.3414 54.8288 39.1806 54.0409 37.4869 52.6162L18.6023 36.4141C18.4119 36.2508 18.2967 36.0231 18.278 35.7731C18.2592 35.5229 18.3392 35.2806 18.503 35.0908L19.6135 33.8039C19.7985 33.5897 20.0603 33.4797 20.3237 33.4797C20.5398 33.4797 20.7568 33.5538 20.9331 33.7049L39.7849 49.8789C39.788 49.8816 39.7912 49.8843 39.7943 49.8869C40.8497 50.7691 42.1885 51.255 43.5639 51.255H59.2514C59.768 51.255 60.1884 51.6753 60.1884 52.192V53.8918Z" fill="#29A867"/>
<path d="M60.9597 49.9056C60.7976 44.4682 56.3239 40.0948 50.8479 40.0948H45.9814L43.2131 23.47C43.068 22.4704 42.5365 21.5957 41.7156 21.0059C40.8916 20.4139 39.8882 20.1901 38.8908 20.3756C36.8573 20.7537 36.2977 20.8347 36.1451 20.8493C35.8626 20.8763 35.6066 21.0271 35.4459 21.2611C35.2852 21.495 35.2364 21.7881 35.3127 22.0616L35.551 22.9165C33.8089 22.7079 32.2137 21.7596 31.2009 20.2754L30.6149 19.418C30.4607 19.1924 30.2176 19.0433 29.9466 19.0081C29.6758 18.9727 29.4026 19.0549 29.1958 19.2335L24.6095 23.1971C24.0956 23.5829 23.5989 24.0859 23.1331 24.6922C23.1328 24.6925 23.1326 24.6929 23.1323 24.6932C21.8313 26.3827 20.7056 28.9141 20.0585 31.5752C19.3484 31.6412 18.6621 31.9704 18.1613 32.5506L17.0508 33.8375C16.5515 34.416 16.308 35.1543 16.3651 35.9165C16.4223 36.6786 16.7731 37.3723 17.3532 37.87L36.2449 54.0781C36.5652 54.3475 36.8991 54.598 37.2446 54.8288H31.3226C30.7929 54.8288 30.3635 55.2582 30.3635 55.7879C30.3635 56.3176 30.7929 56.747 31.3226 56.747H59.2514C60.8258 56.747 62.1066 55.4661 62.1066 53.8918V52.192C62.1066 51.2577 61.6556 50.4268 60.9597 49.9056V49.9056ZM42.361 30.0311H39.5252L38.8194 27.4987H41.9393L42.361 30.0311ZM42.6804 31.9494L43.123 34.6076H40.8007L40.0598 31.9494H42.6804ZM43.4425 36.5259L44.1212 40.6017C43.8256 40.6889 43.508 40.685 43.198 40.5847C42.6819 40.418 42.305 40.0218 42.1616 39.4904L41.3353 36.5259H43.4425ZM39.2416 22.2615C39.7201 22.1724 40.2012 22.2798 40.5964 22.5638C40.9918 22.8478 41.2473 23.2697 41.3157 23.7517C41.3167 23.7594 41.3179 23.767 41.3192 23.7746L41.6199 25.5805H38.2848L37.4501 22.5856C37.8672 22.5133 38.4427 22.41 39.2416 22.2615V22.2615ZM25.8377 24.6709L29.6373 21.3872C31.1162 23.5336 33.5275 24.8177 36.0972 24.8763L36.2935 25.5804H36.2366C35.7069 25.5804 35.2775 26.0098 35.2775 26.5395C35.2775 27.0692 35.7069 27.4986 36.2366 27.4986H36.8281L37.5339 30.031H36.9106C36.3808 30.031 35.9515 30.4604 35.9515 30.9902C35.9515 31.5199 36.3808 31.9493 36.9106 31.9493H38.0686L38.8095 34.6076H37.6779C37.1481 34.6076 36.7187 35.0369 36.7187 35.5667C36.7187 36.0964 37.1481 36.5258 37.6779 36.5258H39.3441L40.3118 39.9975C40.6207 41.143 41.4791 42.0449 42.608 42.4098C42.7667 42.4611 42.9272 42.5007 43.0885 42.5287L42.154 43.8776C41.8524 44.313 41.9609 44.9105 42.3962 45.2122C42.5628 45.3276 42.7532 45.383 42.9416 45.383C43.2455 45.383 43.5446 45.2388 43.7308 44.97L45.7794 42.013H50.8478C55.073 42.013 58.5618 45.2258 58.9997 49.3366H43.5639C42.6392 49.3366 41.7393 49.0107 41.029 48.4188L27.3934 36.7202C29.0116 35.4278 29.9764 33.4228 29.9764 31.2297C29.9764 29.5476 29.3693 27.9227 28.267 26.6543C27.556 25.8362 26.6701 25.2004 25.686 24.7889C25.7178 24.7639 25.7497 24.7395 25.7815 24.7159C25.8008 24.7016 25.8196 24.6866 25.8377 24.6709V24.6709ZM24.3075 26.3409C26.4809 26.9252 28.0581 28.9349 28.0581 31.2297C28.0581 32.9612 27.244 34.5259 25.9003 35.4393L22.182 32.2492C22.0969 32.1761 22.0084 32.109 21.9175 32.0476C22.442 29.8764 23.3043 27.8186 24.3075 26.3409V26.3409ZM60.1884 53.8918C60.1884 54.4084 59.768 54.8288 59.2514 54.8288H43.5639C41.3414 54.8288 39.1806 54.0409 37.4869 52.6162L18.6023 36.4141C18.4119 36.2508 18.2967 36.0231 18.278 35.7731C18.2592 35.5229 18.3392 35.2806 18.503 35.0908L19.6135 33.8039C19.7985 33.5897 20.0603 33.4797 20.3237 33.4797C20.5398 33.4797 20.7568 33.5538 20.9331 33.7049L39.7849 49.8789C39.788 49.8816 39.7912 49.8843 39.7943 49.8869C40.8497 50.7691 42.1885 51.255 43.5639 51.255H59.2514C59.768 51.255 60.1884 51.6753 60.1884 52.192V53.8918Z" fill="url(#paint4_linear)"/>
<defs>
<linearGradient id="paint0_linear" x1="19.7353" y1="54.8288" x2="19.7353" y2="56.747" gradientUnits="userSpaceOnUse">
<stop stop-color="#005B2D"/>
<stop offset="1" stop-color="white" stop-opacity="0"/>
</linearGradient>
<linearGradient id="paint1_linear" x1="26.9689" y1="54.8292" x2="26.9689" y2="56.7447" gradientUnits="userSpaceOnUse">
<stop stop-color="#005B2D"/>
<stop offset="1" stop-color="white" stop-opacity="0"/>
</linearGradient>
<linearGradient id="paint2_linear" x1="21.0687" y1="50.0243" x2="21.0687" y2="51.9425" gradientUnits="userSpaceOnUse">
<stop stop-color="#005B2D"/>
<stop offset="1" stop-color="white" stop-opacity="0"/>
</linearGradient>
<linearGradient id="paint3_linear" x1="18.1496" y1="45.2197" x2="18.1496" y2="47.138" gradientUnits="userSpaceOnUse">
<stop stop-color="#005B2D"/>
<stop offset="1" stop-color="white" stop-opacity="0"/>
</linearGradient>
<linearGradient id="paint4_linear" x1="39.2318" y1="19" x2="39.2318" y2="56.747" gradientUnits="userSpaceOnUse">
<stop stop-color="#005B2D"/>
<stop offset="1" stop-color="white" stop-opacity="0"/>
</linearGradient>
</defs>
</svg>
