<svg width="76" height="76" viewBox="0 0 76 76" fill="none" xmlns="http://www.w3.org/2000/svg">
<circle cx="38" cy="38" r="38" fill="white"/>
<path d="M36.6098 28.8461C36.7733 29.2385 37.2361 29.4313 37.6293 29.268C38.0227 29.1046 38.215 28.6416 38.052 28.2477C37.8894 27.855 37.4242 27.6624 37.0317 27.8258C36.6372 27.9899 36.4482 28.4518 36.6098 28.8461Z" fill="#29A867"/>
<path d="M36.6098 28.8461C36.7733 29.2385 37.2361 29.4313 37.6293 29.268C38.0227 29.1046 38.215 28.6416 38.052 28.2477C37.8894 27.855 37.4242 27.6624 37.0317 27.8258C36.6372 27.9899 36.4482 28.4518 36.6098 28.8461Z" fill="url(#paint0_linear)"/>
<path d="M53.4815 47.3539H53.4558V46.8259C53.4558 43.0736 50.4004 40.0208 46.6448 40.0208C42.8892 40.0208 39.8338 43.0736 39.8338 46.8259V52.1948C39.8338 55.0856 37.4794 57.4375 34.5853 57.4375C32.4674 57.4375 30.5785 56.1637 29.7619 54.2636C30.5898 53.8326 31.1568 52.9671 31.1568 51.9713V50.7627C32.5363 49.8955 33.4555 48.3616 33.4555 46.6164V43.3104C36.3139 42.9281 37.7441 40.5477 37.8085 40.4379C38.0009 40.1096 37.9288 39.6905 37.6378 39.4454L34.2045 36.5531L44.5331 33.0412C46.412 32.4022 48.5238 32.9061 49.9578 34.2629C50.756 35.0188 51.9723 35.8877 53.5841 36.2464C54.2391 36.3923 55.8794 36.7717 55.8794 35.634V21.5592C55.8794 20.6925 54.9228 20.7546 54.3227 20.8185C52.7534 20.984 51.3048 21.678 50.0037 22.8878C48.5592 24.233 46.4427 24.7195 44.5691 24.0658L32.5374 19.8641C31.3141 19.3055 29.9625 19 28.5559 19C23.3587 19 19 23.3426 19 28.5473C19 29.6499 19.1887 30.7091 19.5344 31.6952C19.5444 31.7312 19.5566 31.7663 19.5714 31.8001C20.327 33.8768 21.7844 35.6194 23.6557 36.7408V46.6164C23.6557 48.3755 24.5895 49.9204 25.9873 50.7837V51.9713C25.9873 53.2641 26.9425 54.338 28.1847 54.5255C29.1545 57.1871 31.7077 59 34.5854 59C38.341 59 41.3964 55.9472 41.3964 52.1948V46.8259C41.3964 43.9352 43.7509 41.5833 46.6449 41.5833C49.539 41.5833 51.8934 43.9352 51.8934 46.8259V47.3539H51.8677C50.2254 47.3539 48.8892 48.6891 48.8892 50.3303V53.5327C48.8892 53.9642 49.239 54.314 49.6705 54.314H50.443V55.6446C50.443 56.0761 50.7927 56.4259 51.2242 56.4259C51.6557 56.4259 52.0055 56.0761 52.0055 55.6446V54.314H53.2748V55.6446C53.2748 56.0761 53.6246 56.4259 54.0561 56.4259C54.4876 56.4259 54.8373 56.0761 54.8373 55.6446V54.314H55.6788C56.1103 54.314 56.4601 53.9642 56.4601 53.5327V50.3303C56.46 48.6891 55.1238 47.3539 53.4815 47.3539ZM33.4555 41.7296V37.9652L36.0711 40.1686C35.608 40.7049 34.7355 41.4906 33.4555 41.7296ZM50.4513 32.6347V24.5445C51.0072 24.1336 51.4797 23.6296 52.063 23.2523C52.7442 22.8117 53.512 22.5071 54.3169 22.3934V34.7932C53.4929 34.6713 52.7049 34.3534 52.0084 33.9C51.442 33.5313 50.9861 33.042 50.4513 32.6347V32.6347ZM21.4847 32.2671H24.5141C24.9455 32.2671 25.2953 31.9173 25.2953 31.4859C25.2953 31.0544 24.9455 30.7046 24.5141 30.7046H20.8591C20.7341 30.2602 20.6469 29.8004 20.6008 29.3286H24.4369C24.8684 29.3286 25.2181 28.9788 25.2181 28.5473C25.2181 28.1159 24.8684 27.7661 24.4369 27.7661H20.6008C20.6466 27.2973 20.733 26.8404 20.8568 26.3988H24.437C24.8684 26.3988 25.2182 26.049 25.2182 25.6175C25.2182 25.186 24.8684 24.8363 24.437 24.8363H21.4802C22.8199 22.2974 25.4887 20.5625 28.5559 20.5625C31.7595 20.5625 34.7174 22.5372 35.9438 25.4955C36.0884 25.8443 36.4566 26.0328 36.8134 25.9635C36.8645 25.9537 36.9152 25.9385 36.965 25.9178C37.3636 25.7526 37.5527 25.2955 37.3876 24.897C37.0777 24.1494 36.6716 23.439 36.1846 22.7927L44.0543 25.5409C45.6497 26.0977 47.3613 26.0356 48.8888 25.4202V31.7327C47.3595 31.0949 45.6384 31.0148 44.0301 31.5617L36.2553 34.2053C36.705 33.593 37.0834 32.9257 37.3765 32.2247C37.5429 31.8266 37.3552 31.369 36.957 31.2026C36.565 31.0387 36.099 31.2283 35.9344 31.6219C34.7429 34.4709 31.9157 36.4205 28.8308 36.5271C25.7969 36.6297 22.9045 34.9495 21.4847 32.2671V32.2671ZM25.2182 37.4938C27.358 38.2888 29.7524 38.2905 31.893 37.4961V42.5823V46.6163C31.893 47.9364 31.1208 49.0797 30.0038 49.6193C29.1974 50.0092 28.2462 50.0523 27.4056 49.7458C26.1302 49.2767 25.2182 48.0509 25.2182 46.6163V37.4938ZM27.5498 51.9713V51.4096C28.22 51.5492 28.9249 51.5472 29.5943 51.4027V51.9713C29.5943 52.5343 29.1359 52.9922 28.5724 52.9922C28.0085 52.9921 27.5498 52.5341 27.5498 51.9713V51.9713ZM54.8975 52.7515H50.4516V50.3303C50.4516 49.5507 51.0868 48.9164 51.8676 48.9164H53.4815C54.2623 48.9164 54.8975 49.5507 54.8975 50.3303V52.7515Z" fill="#29A867"/>
<path d="M53.4815 47.3539H53.4558V46.8259C53.4558 43.0736 50.4004 40.0208 46.6448 40.0208C42.8892 40.0208 39.8338 43.0736 39.8338 46.8259V52.1948C39.8338 55.0856 37.4794 57.4375 34.5853 57.4375C32.4674 57.4375 30.5785 56.1637 29.7619 54.2636C30.5898 53.8326 31.1568 52.9671 31.1568 51.9713V50.7627C32.5363 49.8955 33.4555 48.3616 33.4555 46.6164V43.3104C36.3139 42.9281 37.7441 40.5477 37.8085 40.4379C38.0009 40.1096 37.9288 39.6905 37.6378 39.4454L34.2045 36.5531L44.5331 33.0412C46.412 32.4022 48.5238 32.9061 49.9578 34.2629C50.756 35.0188 51.9723 35.8877 53.5841 36.2464C54.2391 36.3923 55.8794 36.7717 55.8794 35.634V21.5592C55.8794 20.6925 54.9228 20.7546 54.3227 20.8185C52.7534 20.984 51.3048 21.678 50.0037 22.8878C48.5592 24.233 46.4427 24.7195 44.5691 24.0658L32.5374 19.8641C31.3141 19.3055 29.9625 19 28.5559 19C23.3587 19 19 23.3426 19 28.5473C19 29.6499 19.1887 30.7091 19.5344 31.6952C19.5444 31.7312 19.5566 31.7663 19.5714 31.8001C20.327 33.8768 21.7844 35.6194 23.6557 36.7408V46.6164C23.6557 48.3755 24.5895 49.9204 25.9873 50.7837V51.9713C25.9873 53.2641 26.9425 54.338 28.1847 54.5255C29.1545 57.1871 31.7077 59 34.5854 59C38.341 59 41.3964 55.9472 41.3964 52.1948V46.8259C41.3964 43.9352 43.7509 41.5833 46.6449 41.5833C49.539 41.5833 51.8934 43.9352 51.8934 46.8259V47.3539H51.8677C50.2254 47.3539 48.8892 48.6891 48.8892 50.3303V53.5327C48.8892 53.9642 49.239 54.314 49.6705 54.314H50.443V55.6446C50.443 56.0761 50.7927 56.4259 51.2242 56.4259C51.6557 56.4259 52.0055 56.0761 52.0055 55.6446V54.314H53.2748V55.6446C53.2748 56.0761 53.6246 56.4259 54.0561 56.4259C54.4876 56.4259 54.8373 56.0761 54.8373 55.6446V54.314H55.6788C56.1103 54.314 56.4601 53.9642 56.4601 53.5327V50.3303C56.46 48.6891 55.1238 47.3539 53.4815 47.3539ZM33.4555 41.7296V37.9652L36.0711 40.1686C35.608 40.7049 34.7355 41.4906 33.4555 41.7296ZM50.4513 32.6347V24.5445C51.0072 24.1336 51.4797 23.6296 52.063 23.2523C52.7442 22.8117 53.512 22.5071 54.3169 22.3934V34.7932C53.4929 34.6713 52.7049 34.3534 52.0084 33.9C51.442 33.5313 50.9861 33.042 50.4513 32.6347V32.6347ZM21.4847 32.2671H24.5141C24.9455 32.2671 25.2953 31.9173 25.2953 31.4859C25.2953 31.0544 24.9455 30.7046 24.5141 30.7046H20.8591C20.7341 30.2602 20.6469 29.8004 20.6008 29.3286H24.4369C24.8684 29.3286 25.2181 28.9788 25.2181 28.5473C25.2181 28.1159 24.8684 27.7661 24.4369 27.7661H20.6008C20.6466 27.2973 20.733 26.8404 20.8568 26.3988H24.437C24.8684 26.3988 25.2182 26.049 25.2182 25.6175C25.2182 25.186 24.8684 24.8363 24.437 24.8363H21.4802C22.8199 22.2974 25.4887 20.5625 28.5559 20.5625C31.7595 20.5625 34.7174 22.5372 35.9438 25.4955C36.0884 25.8443 36.4566 26.0328 36.8134 25.9635C36.8645 25.9537 36.9152 25.9385 36.965 25.9178C37.3636 25.7526 37.5527 25.2955 37.3876 24.897C37.0777 24.1494 36.6716 23.439 36.1846 22.7927L44.0543 25.5409C45.6497 26.0977 47.3613 26.0356 48.8888 25.4202V31.7327C47.3595 31.0949 45.6384 31.0148 44.0301 31.5617L36.2553 34.2053C36.705 33.593 37.0834 32.9257 37.3765 32.2247C37.5429 31.8266 37.3552 31.369 36.957 31.2026C36.565 31.0387 36.099 31.2283 35.9344 31.6219C34.7429 34.4709 31.9157 36.4205 28.8308 36.5271C25.7969 36.6297 22.9045 34.9495 21.4847 32.2671V32.2671ZM25.2182 37.4938C27.358 38.2888 29.7524 38.2905 31.893 37.4961V42.5823V46.6163C31.893 47.9364 31.1208 49.0797 30.0038 49.6193C29.1974 50.0092 28.2462 50.0523 27.4056 49.7458C26.1302 49.2767 25.2182 48.0509 25.2182 46.6163V37.4938ZM27.5498 51.9713V51.4096C28.22 51.5492 28.9249 51.5472 29.5943 51.4027V51.9713C29.5943 52.5343 29.1359 52.9922 28.5724 52.9922C28.0085 52.9921 27.5498 52.5341 27.5498 51.9713V51.9713ZM54.8975 52.7515H50.4516V50.3303C50.4516 49.5507 51.0868 48.9164 51.8676 48.9164H53.4815C54.2623 48.9164 54.8975 49.5507 54.8975 50.3303V52.7515Z" fill="url(#paint1_linear)"/>
<defs>
<linearGradient id="paint0_linear" x1="37.331" y1="27.7675" x2="37.331" y2="29.3262" gradientUnits="userSpaceOnUse">
<stop stop-color="#174930"/>
<stop offset="1" stop-color="white" stop-opacity="0"/>
</linearGradient>
<linearGradient id="paint1_linear" x1="37.73" y1="19" x2="37.73" y2="59" gradientUnits="userSpaceOnUse">
<stop stop-color="#174930"/>
<stop offset="1" stop-color="white" stop-opacity="0"/>
</linearGradient>
</defs>
</svg>
